<svg width="258" height="305" viewBox="0 0 258 305" fill="none" xmlns="http://www.w3.org/2000/svg">
<path fill-rule="evenodd" clip-rule="evenodd" d="M0.267175 162.508C0.387175 123.068 0.447107 83.6182 0.447107 44.1782C0.687107 8.62818 36.5571 -10.9218 67.0671 7.01818C123.317 40.6182 179.287 74.6782 234.977 109.208C265.147 131.168 265.157 174.948 234.967 196.898C181.137 229.308 127.397 261.858 73.7271 294.548C41.3471 316.138 2.4471 300.888 0.437097 260.848C0.277097 228.068 0.217175 195.288 0.267175 162.508ZM82.0871 87.5082C82.0571 134.968 82.1471 182.418 82.3671 229.878C84.7271 246.058 106.357 245.108 107.017 226.878C107.257 224.248 107.377 221.618 107.397 218.988C107.257 172.378 107.107 125.778 106.917 79.1782C103.557 61.1982 80.3371 65.3882 82.0871 87.5082ZM38.5971 206.508C40.2971 224.618 61.2971 222.788 62.5871 207.658C62.7071 179.458 62.8072 151.248 62.8872 123.048C63.1972 112.088 65.1672 86.9582 46.8972 91.8182C35.9172 95.8482 39.3171 108.938 38.6171 118.008C38.6071 147.508 38.6071 177.008 38.5971 206.508ZM127.397 182.508C125.287 203.558 147.417 206.658 151.707 190.698C152.367 167.778 152.287 144.168 151.797 121.208C149.697 106.978 132.677 105.888 128.397 118.298C126.687 138.228 128.207 162.088 127.397 182.508ZM172.997 154.508C173.587 176.558 204.717 173.238 200.417 151.558C196.777 136.008 173.487 139.088 172.997 154.508Z" fill="url(#muzaGlyphGradient)" stroke="#024BDD" stroke-width="0.5"/>
<defs>
<linearGradient id="muzaGlyphGradient" x1="128.929" y1="0.25" x2="128.929" y2="304.365" gradientUnits="userSpaceOnUse">
<stop stop-color="#F76967"/>
<stop offset="1" stop-color="#3B82F6"/>
</linearGradient>
</defs>
</svg>
