<svg xmlns="http://www.w3.org/2000/svg" viewBox="283 121 455 796">
  <path d="M467.3,134.9 L638.1,134.9 Q653.1,134.9 646.4,148.4 L519.7,405.6 Q516.9,411.2 516.4,417.5 L516.3,419.0 Q515.9,425.0 521.9,425.1 L716.0,428.1 Q729.0,428.3 721.8,439.2 L528.5,732.7 Q525.2,737.7 524.9,731.7 C523.2,707.5 522.4,698.7 520.9,691.2 C519.4,683.7 517.7,678.4 514.9,670.2 C512.1,662.0 506.8,646.9 503.9,642.2 C500.9,637.5 500.3,639.0 497.2,641.9 C494.1,644.8 488.2,656.9 485.5,659.9 C482.8,662.9 482.1,660.6 481.2,659.9 C480.3,659.2 480.4,662.6 479.9,655.5 C479.3,648.4 477.6,627.8 477.9,617.2 C478.2,606.7 480.1,600.5 481.9,592.2 C483.7,583.9 487.8,573.2 488.9,567.5 C490.0,561.8 488.6,559.5 488.5,557.9 L488.7,562.3 Q488.5,557.9 484.1,557.9 L305.3,557.9 Q295.3,557.9 298.8,548.5 L451.1,146.1 Q455.3,134.9 467.3,134.9 Z" fill="#327AD9"></path>
  <path d="M391.0,904.1 C389.1,904.0 387.4,900.8 387.8,898.0 C388.1,895.2 391.4,890.9 392.9,887.4 C394.5,883.9 395.6,880.6 396.9,877.2 C398.1,873.8 399.3,870.3 400.4,866.8 C401.5,863.2 402.5,859.6 403.3,855.9 C404.2,852.2 404.9,848.4 405.4,844.5 C405.9,840.7 406.3,836.7 406.6,832.8 C406.8,828.8 406.9,824.8 406.9,820.9 C406.8,816.9 406.6,812.9 406.2,809.1 C405.9,805.2 405.4,801.3 404.7,797.5 C404.1,793.8 403.3,790.2 402.4,786.6 C401.4,782.9 400.6,778.9 399.2,775.5 C397.9,772.1 396.8,767.1 394.4,766.3 C392.0,765.4 387.5,768.3 385.1,770.7 C382.7,773.1 381.7,777.3 380.1,780.7 C378.6,784.0 376.9,787.3 375.7,790.8 C374.4,794.3 373.6,797.8 372.7,801.5 C371.8,805.3 371.9,811.5 370.4,813.3 C369.0,815.1 365.4,814.3 363.8,812.3 C362.2,810.3 361.7,805.0 360.7,801.4 C359.7,797.7 358.7,793.9 357.9,790.1 C357.2,786.3 356.6,782.5 356.3,778.6 C355.9,774.7 355.8,770.8 355.8,766.9 C355.8,763.0 356.0,759.1 356.3,755.2 C356.6,751.3 357.1,747.4 357.7,743.6 C358.4,739.8 359.1,736.0 360.0,732.2 C360.9,728.5 361.9,724.9 363.1,721.3 C364.2,717.7 365.4,714.2 366.8,710.8 C368.1,707.4 369.6,704.0 371.1,700.7 C372.7,697.4 374.4,694.1 376.2,690.9 C377.9,687.6 379.8,684.5 381.8,681.3 C383.7,678.2 385.8,675.1 388.0,672.0 C390.1,668.9 392.4,665.9 394.7,662.9 C397.0,659.8 399.4,656.9 401.8,653.9 C404.2,650.9 406.7,648.0 409.2,645.0 C411.7,642.1 414.2,639.2 416.8,636.3 C419.3,633.4 421.9,630.5 424.5,627.7 C427.0,624.8 429.6,621.9 432.1,619.0 C434.6,616.1 437.0,613.2 439.4,610.2 C441.9,607.3 444.2,604.3 446.5,601.3 C448.8,598.3 450.9,593.9 453.3,592.0 C455.8,590.0 460.0,588.2 461.2,589.7 C462.3,591.2 460.7,597.3 460.2,601.0 C459.7,604.8 458.7,608.5 458.2,612.3 C457.6,616.2 457.3,620.2 457.1,624.1 C456.9,628.1 456.9,632.1 456.9,636.1 C456.9,640.1 457.0,644.1 457.3,648.0 C457.5,652.0 457.8,655.9 458.3,659.8 C458.7,663.7 459.2,667.5 459.8,671.3 C460.4,675.1 461.1,678.9 461.9,682.6 C462.7,686.3 463.6,689.8 464.5,693.5 C465.3,697.2 465.8,701.1 467.0,704.6 C468.2,708.0 469.6,713.2 471.7,714.1 C473.9,715.1 477.6,712.7 479.8,710.4 C482.0,708.0 483.3,703.3 484.8,699.8 C486.4,696.4 487.2,692.5 488.9,689.7 C490.7,686.9 493.8,682.7 495.6,683.3 C497.4,683.9 498.6,689.9 499.5,693.5 C500.4,697.1 500.6,700.9 501.0,704.8 C501.4,708.7 501.7,712.7 501.9,716.7 C502.0,720.7 502.1,724.9 502.0,728.9 C501.9,732.9 501.7,736.9 501.4,740.8 C501.0,744.7 500.6,748.6 500.0,752.4 C499.4,756.2 498.7,759.9 497.9,763.6 C497.1,767.3 496.1,770.9 495.1,774.5 C494.1,778.1 492.9,781.6 491.7,785.1 C490.4,788.6 489.0,792.0 487.6,795.4 C486.1,798.8 484.5,802.1 482.8,805.4 C481.2,808.7 479.4,812.0 477.5,815.2 C475.7,818.4 473.7,821.6 471.6,824.7 C469.6,827.8 467.4,830.9 465.2,833.9 C463.0,837.0 460.7,840.0 458.3,843.0 C455.9,845.9 453.4,848.9 450.8,851.8 C448.3,854.7 445.7,857.5 443.0,860.3 C440.3,863.2 437.6,865.9 434.7,868.7 C431.9,871.4 429.1,874.2 426.2,876.8 C423.3,879.5 420.3,882.1 417.4,884.5 C414.5,887.0 411.5,889.2 408.6,891.6 C405.6,893.9 402.5,896.6 399.6,898.7 C396.7,900.8 393.0,904.2 391.0,904.1 Z" fill="#F76967"></path>
</svg>